<svg width="40" height="40" viewBox="0 0 40 40" fill="none" xmlns="http://www.w3.org/2000/svg">
  <!-- glass badge -->
  <rect x="2" y="2" width="36" height="36" rx="10" fill="#684D33" fill-opacity="0.18"></rect>
  <rect x="2.6" y="2.6" width="36-1.2" height="36-1.2" rx="9.4" stroke="#684D33" stroke-opacity="0.25" stroke-width="1.2" fill="none"></rect>
  <!-- speaker -->
  <path d="M16 16 L19 13 C19.6 12.5 20.5 12.95 20.5 13.7 V26.3 C20.5 27.05 19.6 27.5 19 27 L16 24 H12 C11.45 24 11 23.55 11 23 V17 C11 16.45 11.45 16 12 16 H16Z" fill="#684D33"></path>
  <!-- waves -->
  <path d="M24.8 16.7 C26.2 18.1 26.2 21.9 24.8 23.3" stroke="#684D33" stroke-width="2" stroke-linecap="round" stroke-opacity="0.9"></path>
  <path d="M27.8 14.2 C30.9 17.3 30.9 22.7 27.8 25.8" stroke="#684D33" stroke-width="2" stroke-linecap="round" stroke-opacity="0.7"></path>
</svg>
